<?xml version="1.0" standalone="no"?><svg xmlns="http://www.w3.org/2000/svg" viewBox="0 0 1440 320"><path fill="#0099ff" fill-opacity="1" d="M0,288L36.9,96L73.8,64L110.8,224L147.7,224L184.6,288L221.5,64L258.5,224L295.4,128L332.3,320L369.2,32L406.2,160L443.1,96L480,32L516.9,288L553.8,224L590.8,192L627.7,320L664.6,192L701.5,160L738.5,320L775.4,32L812.3,224L849.2,192L886.2,128L923.1,192L960,256L996.9,224L1033.8,160L1070.8,320L1107.7,256L1144.6,256L1181.5,160L1218.5,192L1255.4,0L1292.3,64L1329.2,96L1366.2,160L1403.1,224L1440,160L1440,320L1403.1,320L1366.2,320L1329.2,320L1292.3,320L1255.4,320L1218.5,320L1181.5,320L1144.6,320L1107.7,320L1070.8,320L1033.8,320L996.9,320L960,320L923.1,320L886.2,320L849.2,320L812.3,320L775.4,320L738.5,320L701.5,320L664.6,320L627.7,320L590.8,320L553.8,320L516.9,320L480,320L443.1,320L406.2,320L369.2,320L332.3,320L295.4,320L258.5,320L221.5,320L184.6,320L147.7,320L110.8,320L73.8,320L36.9,320L0,320Z"></path></svg>